<?xml version="1.0" standalone="no"?>
<!DOCTYPE svg PUBLIC "-//W3C//DTD SVG 20010904//EN"
 "http://www.w3.org/TR/2001/REC-SVG-20010904/DTD/svg10.dtd">
<svg version="1.0" xmlns="http://www.w3.org/2000/svg"
 width="1024.000000pt" height="1024.000000pt" viewBox="0 0 1024.000000 1024.000000"
 preserveAspectRatio="xMidYMid meet">
<metadata>
Created by potrace 1.14, written by Peter Selinger 2001-2017
</metadata>
<g transform="translate(0.000000,1024.000000) scale(0.100000,-0.100000)"
fill="#000000" stroke="none">
<path d="M4750 6258 c-25 -28 -53 -60 -62 -70 -10 -10 -18 -20 -18 -23 0 -8
-54 -60 -85 -81 -47 -33 -120 -55 -135 -41 -10 9 -11 9 -5 -2 5 -9 3 -12 -6
-9 -8 3 -24 1 -37 -3 -15 -6 -21 -5 -17 1 3 6 3 10 -2 11 -4 0 -16 2 -26 4 -9
2 -15 -1 -11 -6 6 -10 -32 -7 -42 4 -4 4 -12 3 -18 -2 -7 -6 -49 3 -108 23
-69 23 -98 29 -98 20 0 -7 -9 -16 -20 -19 -11 -4 -18 -10 -15 -15 3 -4 -2 -10
-10 -14 -8 -3 -15 -13 -15 -21 0 -9 -4 -13 -10 -10 -5 3 -10 1 -10 -4 0 -6
-18 -29 -40 -51 -22 -22 -37 -40 -34 -40 4 0 -21 -27 -55 -61 -33 -33 -61 -65
-61 -70 0 -4 -10 -17 -22 -29 -12 -11 -18 -20 -12 -20 5 0 3 -4 -4 -9 -17 -10
-22 -42 -9 -58 6 -9 5 -13 -4 -13 -9 0 -10 -3 -4 -8 6 -4 11 -27 12 -52 3 -77
12 -171 18 -181 4 -5 0 -9 -7 -9 -10 0 -9 -3 2 -10 12 -8 12 -10 -3 -15 -19
-8 -47 16 -47 39 0 9 -4 16 -10 16 -5 0 -10 6 -10 13 0 6 -21 35 -45 62 -25
28 -45 53 -45 56 0 11 -127 69 -149 69 -12 0 -21 5 -21 10 0 6 -5 10 -11 10
-5 0 -7 -4 -4 -10 3 -6 -1 -7 -9 -4 -9 3 -13 11 -9 18 4 7 1 7 -9 -1 -8 -7
-18 -10 -21 -6 -4 3 -7 0 -7 -8 0 -11 -2 -11 -10 1 -6 10 -10 11 -10 3 0 -7
-8 -13 -17 -13 -19 0 -121 -48 -140 -66 -6 -6 -22 -10 -35 -9 -13 1 -29 3 -36
4 -6 0 -11 4 -10 9 2 4 -7 20 -19 35 -16 21 -32 29 -57 30 -20 1 -36 6 -36 10
0 4 -10 2 -22 -4 -21 -11 -58 -20 -83 -20 -38 0 -89 12 -103 23 -13 11 -15 11
-7 -2 6 -12 5 -13 -5 -3 -9 9 -19 9 -32 2 -11 -6 -22 -8 -25 -6 -5 6 -37 -23
-50 -47 -8 -15 -11 -14 -23 8 -7 14 -26 28 -41 31 -16 4 -29 10 -29 15 0 5 -8
7 -17 5 -49 -9 -79 -19 -90 -28 -9 -6 -13 -6 -13 2 0 9 -5 9 -20 1 -14 -7 -20
-7 -20 0 0 5 -11 10 -25 10 -14 0 -25 5 -25 11 0 5 -4 7 -10 4 -5 -3 -10 0
-10 7 0 8 -3 9 -8 3 -12 -17 -56 -33 -82 -30 -14 1 -31 3 -38 4 -7 0 -11 5 -8
9 7 12 -33 8 -69 -7 -16 -7 -40 -10 -53 -8 -12 2 -25 0 -28 -5 -3 -4 -11 -5
-17 -1 -14 8 -28 11 -75 15 -17 1 -32 6 -32 10 0 5 -9 4 -20 -2 -14 -8 -20 -8
-20 0 0 7 -5 8 -12 3 -7 -4 -22 -8 -33 -8 -11 0 -24 -3 -30 -7 -5 -3 -27 -5
-47 -4 -21 1 -38 -1 -38 -5 0 -5 -16 -1 -35 7 -19 8 -35 12 -35 9 0 -3 -9 -1
-20 5 -15 8 -20 8 -20 -1 0 -7 -3 -9 -7 -6 -3 4 -12 2 -20 -4 -7 -6 -13 -8
-13 -5 0 9 -45 -33 -45 -42 0 -4 -4 -13 -9 -20 -6 -10 -11 -9 -24 5 -24 26
-109 63 -143 63 -13 0 -18 4 -13 13 5 8 2 8 -9 -2 -13 -10 -17 -10 -17 -1 0
10 -3 10 -15 0 -12 -10 -15 -10 -15 1 0 11 -2 11 -10 -1 -9 -13 -10 -13 -10 0
0 13 -1 13 -10 0 -9 -13 -10 -13 -10 0 0 9 -3 11 -8 5 -4 -6 -20 -10 -35 -10
-16 1 -31 -3 -33 -7 -3 -4 -12 -8 -21 -8 -17 0 -98 -36 -121 -55 -8 -5 -31
-27 -52 -48 -36 -36 -37 -36 -35 -12 2 14 -1 28 -6 31 -6 4 -6 11 1 19 11 14
9 42 -4 64 -7 10 -5 12 3 6 9 -5 11 2 7 27 -4 27 0 40 15 57 49 52 27 121 -47
147 -44 15 -68 18 -61 7 7 -11 -61 -18 -110 -12 -13 2 -23 6 -23 10 0 10 -34
5 -42 -6 -5 -6 -8 -6 -8 2 0 12 -17 12 -38 -1 -7 -4 -16 -6 -19 -3 -7 7 -78
-30 -93 -49 -7 -7 -16 -12 -20 -9 -16 10 -26 -16 -33 -80 -2 -17 -7 -36 -11
-43 -4 -7 -3 -12 2 -12 5 0 15 -20 22 -45 7 -25 19 -45 26 -45 8 0 14 -4 14
-8 0 -4 16 -8 35 -9 19 0 35 4 35 9 0 5 4 7 9 3 6 -3 15 3 21 12 9 16 10 15 9
-7 -1 -14 0 -29 1 -35 0 -5 0 -84 -1 -175 -3 -181 -3 -223 -1 -417 1 -72 -2
-143 -8 -157 -5 -14 -7 -26 -4 -26 2 0 -1 -6 -8 -14 -7 -8 -17 -11 -22 -8 -5
3 -6 0 -1 -7 9 -16 -31 -59 -73 -76 -17 -8 -32 -19 -32 -25 0 -6 -4 -9 -8 -6
-5 3 -6 -12 -4 -32 2 -20 4 -45 5 -54 1 -9 5 -14 9 -12 4 3 8 -3 8 -12 0 -10
3 -14 7 -11 3 4 13 1 21 -6 13 -10 14 -9 7 3 -6 12 -5 13 6 3 7 -7 22 -13 34
-13 12 0 27 6 34 13 8 7 11 7 8 1 -5 -8 6 -11 32 -10 22 0 37 4 34 9 -2 4 4 7
15 7 10 0 31 11 46 25 15 14 31 25 35 25 5 0 12 7 15 16 3 8 10 13 14 10 4 -3
16 6 26 19 11 15 24 21 34 18 11 -5 13 -3 7 7 -5 9 -4 11 4 6 16 -10 61 -15
61 -7 0 3 14 14 31 24 20 11 29 22 25 32 -3 8 0 15 7 15 8 0 8 3 -2 9 -11 7
-11 9 0 14 9 4 10 6 2 6 -7 1 -10 8 -6 19 3 9 3 14 -2 10 -12 -11 -43 33 -37
54 4 16 6 16 32 -5 15 -12 25 -25 23 -29 -2 -5 1 -8 8 -8 7 0 21 -8 32 -18 15
-12 19 -13 13 -2 -6 12 -4 11 6 -1 7 -9 21 -15 31 -13 9 1 17 -2 17 -8 0 -6 7
-8 15 -4 8 3 15 0 15 -6 0 -7 4 -7 13 1 8 6 17 8 20 4 8 -8 205 -9 213 0 3 3
12 3 20 0 8 -3 17 2 20 11 3 9 10 16 16 16 5 0 6 -6 2 -12 -4 -7 4 -3 17 9 13
12 28 22 34 22 5 0 12 8 16 18 4 10 8 15 8 11 1 -4 12 -3 25 2 15 5 27 5 35
-3 8 -8 11 -8 11 2 0 7 5 9 13 4 18 -11 37 -12 37 -2 0 6 4 7 10 4 5 -3 19 -1
30 5 14 7 20 8 20 0 0 -6 -7 -13 -15 -16 -8 -4 -15 -10 -15 -16 0 -5 6 -6 12
-2 10 6 11 4 1 -7 -18 -19 -17 -53 2 -46 8 4 17 2 20 -3 4 -7 13 -6 26 0 13 8
19 7 19 0 0 -6 4 -9 9 -5 5 3 12 1 16 -5 3 -5 13 -10 21 -10 9 0 12 5 8 11 -4
7 2 6 17 -1 17 -10 24 -10 27 -1 2 6 7 9 12 6 5 -3 20 0 35 7 21 9 28 9 35 -2
4 -7 15 -10 24 -7 9 4 16 2 16 -2 0 -11 19 -9 39 3 10 6 12 5 7 -2 -4 -7 -1
-12 9 -12 9 0 13 4 10 10 -3 6 1 7 9 4 10 -4 28 6 47 25 17 17 27 31 22 31 -4
0 1 6 11 12 15 8 21 8 24 0 3 -9 9 -9 23 -2 10 6 19 8 19 4 0 -3 8 0 17 7 9 8
14 9 10 3 -4 -7 0 -15 9 -18 9 -4 14 -9 11 -12 -10 -10 36 -54 58 -54 11 0 27
-6 34 -12 11 -10 13 -10 7 0 -7 12 22 17 69 13 44 -5 105 0 129 9 19 7 26 6
26 -2 0 -9 3 -9 11 -1 6 6 17 9 25 6 13 -5 13 13 -1 50 -8 20 -5 20 29 7 14
-5 26 -6 26 -2 0 5 14 8 30 8 28 0 36 -10 31 -39 -1 -4 7 -10 16 -14 10 -4 21
-10 24 -15 8 -12 99 -19 99 -8 0 5 7 7 15 4 8 -4 15 -1 15 7 0 7 3 9 7 6 3 -4
13 -1 21 6 13 9 14 9 8 0 -4 -7 -4 -13 1 -14 4 0 17 -3 28 -5 65 -16 151 11
166 52 7 21 38 27 56 12 11 -8 12 -7 8 8 -4 12 0 9 9 -6 8 -14 15 -21 16 -17
0 5 7 1 16 -7 8 -9 20 -14 25 -11 5 4 9 1 9 -4 0 -6 6 -11 14 -11 8 0 17 -6
19 -12 4 -10 6 -10 6 0 1 7 6 10 12 6 15 -9 159 -11 159 -1 0 4 9 3 19 -3 16
-8 23 -6 35 12 9 12 16 17 16 10 0 -11 19 1 56 36 8 7 14 10 14 7 0 -4 18 13
40 36 22 24 40 47 40 52 0 5 7 15 15 23 8 9 15 24 15 35 0 11 5 17 10 14 9 -5
15 23 11 48 0 4 4 7 10 7 6 0 9 9 6 20 -3 11 0 23 6 28 7 4 12 13 12 21 0 8 5
16 11 18 6 2 11 -16 13 -44 1 -26 7 -53 12 -59 7 -8 6 -14 -3 -17 -9 -4 -10
-8 -2 -14 10 -7 32 -63 39 -101 2 -9 4 -17 5 -17 1 0 3 -9 5 -20 4 -20 8 -30
45 -110 13 -27 24 -52 25 -55 3 -18 79 -150 86 -150 5 0 9 -5 9 -11 0 -10 14
-29 75 -107 20 -25 85 -91 85 -86 0 3 20 -15 44 -40 24 -24 47 -42 50 -39 3 4
6 0 6 -7 0 -7 3 -11 6 -7 6 6 17 -1 55 -35 10 -10 23 -18 27 -18 4 0 23 -11
42 -25 18 -13 38 -22 43 -18 6 3 7 2 4 -4 -3 -5 13 -20 36 -33 23 -13 49 -32
58 -42 19 -21 33 -24 24 -5 -4 6 2 2 13 -10 11 -13 28 -23 37 -23 9 0 13 -4
10 -10 -3 -5 1 -10 9 -10 9 0 16 -4 16 -9 0 -5 8 -12 19 -16 10 -3 29 -14 41
-25 12 -11 26 -17 30 -15 5 3 10 0 12 -7 5 -14 38 -20 38 -7 0 5 3 8 8 7 12
-4 71 35 66 44 -3 5 -2 7 3 6 14 -3 53 13 53 22 0 5 16 17 35 26 19 9 35 20
35 25 0 5 7 9 15 9 9 0 26 10 39 23 13 12 29 23 36 25 7 1 19 9 27 17 8 8 18
15 23 15 5 0 15 6 22 13 19 16 48 35 76 47 12 5 22 14 22 20 0 6 4 9 9 5 5 -3
17 5 25 17 9 12 16 19 16 15 0 -8 34 20 109 91 31 30 55 58 53 63 -1 5 5 9 13
9 9 0 18 7 22 16 5 15 29 46 65 84 17 19 34 59 30 73 -1 5 2 6 7 3 5 -4 12 3
16 14 3 11 11 20 17 20 6 0 8 3 5 7 -4 3 3 21 14 39 11 19 18 38 15 43 -3 5 1
11 9 15 8 3 12 12 9 20 -3 8 -1 17 4 20 6 3 18 32 28 64 9 31 22 63 27 70 6 8
5 12 -3 12 -9 0 -9 4 -3 13 6 6 11 20 12 30 0 9 2 25 2 35 1 9 5 22 8 27 4 6
7 40 7 77 -1 38 2 68 6 68 3 0 5 8 3 18 -1 9 3 23 9 31 8 11 8 13 -1 8 -12 -8
-11 22 1 42 4 5 0 12 -6 14 -10 4 -10 6 -1 6 7 1 10 8 7 16 -4 9 0 15 8 15 19
0 18 -58 -2 -70 -13 -8 -12 -10 4 -10 12 0 16 -5 12 -15 -3 -8 -9 -22 -12 -30
-3 -8 -1 -15 6 -15 7 0 10 -6 7 -14 -3 -8 3 -37 13 -64 11 -27 16 -52 13 -56
-4 -3 -2 -6 4 -6 5 0 16 -18 23 -40 7 -22 17 -40 22 -40 4 0 8 -7 8 -15 0 -23
106 -125 130 -125 11 0 20 -4 20 -8 0 -4 14 -13 30 -19 23 -9 28 -8 23 0 -5 9
-3 9 8 1 21 -17 236 -19 257 -2 13 11 14 11 7 -2 -7 -12 -6 -13 7 -3 8 7 18
10 21 6 4 -3 7 -1 7 6 0 7 5 9 10 6 6 -3 13 1 16 9 3 9 9 14 13 12 9 -6 36 16
44 37 9 25 27 12 27 -19 0 -14 10 -35 21 -47 12 -12 18 -15 14 -7 -6 12 -5 13
6 3 16 -16 73 -17 100 -3 14 8 19 7 19 -1 0 -8 5 -7 17 2 11 10 14 10 9 2 -5
-10 6 -13 43 -13 29 0 51 5 51 11 0 5 4 8 9 5 5 -3 12 5 15 19 4 14 11 25 16
25 6 0 10 5 10 11 0 5 -5 7 -12 3 -7 -4 -8 -3 -4 4 5 9 13 9 27 2 10 -6 19 -7
19 -3 0 4 11 8 25 8 16 0 23 -5 20 -12 -2 -7 0 -13 5 -13 6 0 10 -9 10 -21 0
-11 5 -17 10 -14 6 3 10 0 10 -8 0 -10 17 -14 68 -16 37 0 74 3 82 8 9 7 19 6
29 -2 12 -10 13 -9 6 3 -7 13 -6 13 7 2 20 -16 148 -14 148 2 0 8 3 8 8 0 10
-17 125 -17 115 -1 -5 9 -3 9 8 1 18 -15 99 -23 99 -10 0 5 3 6 7 3 3 -4 12
-2 19 4 8 7 14 7 19 -1 3 -5 11 -10 16 -10 6 0 7 6 3 13 -6 8 -3 8 9 -1 20
-17 37 -8 37 20 0 12 3 18 6 15 4 -3 15 -2 25 4 14 7 19 6 19 -3 0 -11 2 -11
8 0 6 9 15 10 33 3 13 -5 20 -10 16 -10 -4 -1 -2 -7 5 -15 7 -8 16 -12 21 -9
4 2 7 0 7 -5 0 -6 25 -12 55 -14 30 -1 55 1 55 6 0 5 3 6 7 3 3 -4 13 -1 21 6
13 10 14 9 7 -3 -8 -13 -7 -13 8 -1 9 7 17 9 17 4 0 -5 21 -10 47 -12 26 -1
50 -4 55 -7 4 -3 8 1 8 8 0 9 3 9 10 -2 5 -8 10 -10 10 -4 0 6 10 11 23 10 12
-1 25 3 29 9 5 6 8 6 8 -2 0 -7 5 -13 11 -13 5 0 7 4 4 10 -3 6 1 7 9 4 9 -3
14 -9 12 -13 -2 -3 22 -4 55 -3 42 3 57 7 52 15 -4 7 2 5 12 -3 14 -11 19 -12
22 -2 3 6 10 9 16 5 30 -19 227 -17 259 3 4 3 8 -1 8 -8 0 -11 2 -11 9 0 7 11
11 11 24 -2 8 -9 23 -13 31 -10 9 3 16 2 16 -3 0 -5 7 -10 15 -10 8 0 12 4 10
8 -3 4 6 10 20 13 14 4 25 13 25 21 0 30 20 14 41 -32 12 -26 29 -54 38 -61
12 -10 12 -11 1 -6 -13 7 -13 5 -1 -9 7 -9 17 -14 22 -11 5 3 9 0 9 -6 0 -15
25 -40 40 -40 6 0 8 -4 5 -10 -3 -5 -1 -10 6 -10 7 0 21 -8 32 -17 14 -12 18
-13 12 -3 -5 8 3 5 18 -7 16 -12 37 -20 47 -18 11 2 23 -1 26 -7 5 -7 2 -8 -6
-3 -9 5 -11 4 -6 -4 6 -9 11 -9 21 -1 10 8 14 7 18 -2 4 -11 6 -10 6 0 1 8 6
10 13 5 19 -11 258 -10 258 2 0 6 4 4 9 -4 5 -8 11 -9 15 -3 3 5 17 7 31 4 14
-2 25 0 25 7 0 5 7 8 15 5 8 -4 15 -1 15 5 0 6 6 8 14 5 8 -3 17 0 21 5 3 6
11 9 16 6 5 -4 9 -1 9 5 0 6 13 16 30 21 16 6 28 14 26 18 -3 4 4 13 16 20 16
10 19 10 13 -1 -4 -7 9 5 29 26 20 22 36 44 36 48 0 5 5 6 10 3 9 -6 14 8 11
28 0 4 4 7 9 7 9 0 29 38 34 65 1 6 5 16 9 23 5 6 5 12 1 12 -3 0 0 8 7 17 12
15 12 16 -1 8 -13 -8 -13 -7 -1 8 7 9 10 17 6 17 -4 0 -1 8 6 17 8 9 9 14 3
10 -7 -4 -10 12 -9 49 1 30 -2 57 -7 60 -4 3 -6 10 -3 15 4 5 1 9 -6 9 -7 0
-10 3 -6 6 22 22 -166 261 -213 272 -8 2 -21 7 -29 12 -11 6 -10 10 7 19 12 7
22 9 22 6 0 -3 13 8 29 24 16 16 32 27 35 24 3 -4 6 -1 6 5 0 6 8 18 18 28 9
10 17 22 17 28 1 6 6 10 13 9 7 -2 11 0 10 5 -4 13 13 52 23 52 5 0 9 6 9 14
0 8 5 18 12 22 7 5 9 2 4 -7 -4 -8 6 2 22 21 17 19 29 37 26 39 -2 2 0 9 5 15
12 15 -37 80 -64 84 -11 2 -23 9 -27 15 -6 9 -8 9 -8 -1 0 -25 -126 4 -160 38
-6 6 -66 29 -92 36 -10 2 -27 6 -39 9 -12 2 -27 9 -33 14 -9 7 -17 7 -26 -2
-10 -9 -11 -9 -6 0 5 10 -1 11 -25 6 -26 -5 -31 -3 -25 8 4 8 0 5 -8 -5 -9
-11 -16 -15 -16 -10 0 6 -11 10 -25 10 -14 0 -25 -4 -25 -9 0 -4 -4 -6 -8 -3
-22 13 -162 -39 -232 -87 -58 -40 -141 -127 -133 -140 3 -6 1 -7 -6 -3 -8 5
-11 0 -10 -16 3 -37 0 -58 -10 -58 -4 0 -7 18 -6 40 3 43 -29 100 -55 100 -9
0 -22 6 -29 13 -8 6 -11 7 -8 1 10 -17 -61 -38 -78 -24 -11 9 -15 9 -15 1 0
-14 -45 -5 -79 16 -18 12 -22 12 -15 2 6 -12 5 -12 -8 -1 -13 10 -17 10 -21 0
-4 -10 -6 -10 -6 1 -1 11 -4 11 -18 0 -15 -12 -16 -12 -8 1 7 12 6 13 -6 3 -8
-6 -26 -14 -39 -17 -14 -3 -36 -7 -49 -10 -14 -3 -30 -1 -38 5 -7 7 -13 8 -13
4 0 -4 -12 0 -26 10 -18 12 -29 14 -33 6 -4 -6 -18 -12 -31 -14 -13 -2 -31
-13 -40 -25 -17 -20 -17 -20 -34 -1 -9 11 -30 22 -46 25 -16 4 -28 10 -25 14
2 3 -2 7 -10 7 -8 0 -15 -3 -15 -7 0 -4 -6 -7 -12 -8 -22 -2 -43 -7 -54 -14
-21 -13 -154 8 -154 24 0 6 -6 5 -15 -2 -8 -6 -19 -9 -25 -5 -5 3 -10 1 -10
-4 0 -6 -6 -11 -14 -11 -8 0 -22 -10 -30 -22 -15 -21 -16 -21 -38 -2 -13 10
-26 23 -29 27 -3 5 -9 8 -13 8 -22 -3 -36 0 -32 7 7 11 -22 8 -59 -7 -36 -15
-105 -21 -105 -10 0 5 -6 6 -14 3 -8 -3 -17 -1 -20 5 -4 6 -14 7 -23 4 -10 -4
-14 -2 -10 4 4 6 -14 0 -40 -13 -27 -13 -53 -22 -59 -20 -7 3 -10 -3 -7 -15 5
-16 1 -19 -18 -17 -13 2 -30 7 -38 12 -10 6 -12 5 -7 -2 5 -8 -3 -12 -24 -12
-23 0 -33 5 -37 20 -3 10 -15 22 -27 26 -11 3 -30 14 -40 23 -11 9 -16 10 -12
4 4 -7 2 -13 -3 -13 -6 0 -11 4 -11 8 0 5 -7 9 -15 9 -8 0 -12 -4 -9 -9 3 -4
-3 -9 -13 -10 -33 -2 -38 -3 -52 -12 -8 -5 -16 -3 -22 5 -6 10 -9 11 -9 1 0
-16 -43 -9 -77 14 -14 9 -22 11 -19 5 4 -6 2 -11 -3 -11 -6 0 -11 4 -11 9 0
11 -83 -29 -88 -42 -2 -4 -8 -5 -13 -2 -5 4 -6 -1 -3 -9 3 -9 1 -16 -6 -16 -6
0 -8 -4 -5 -10 8 -13 3 -13 -32 2 -37 15 -112 12 -140 -5 -7 -5 -17 -5 -23 -2
-5 3 -10 1 -10 -5 0 -6 -10 0 -23 14 -12 13 -31 26 -42 28 -11 1 -23 7 -26 11
-3 5 -21 11 -40 14 -19 2 -35 9 -37 13 -2 5 -10 6 -18 3 -8 -3 -22 1 -31 8
-14 12 -16 12 -8 -1 8 -13 7 -13 -8 -1 -12 9 -17 10 -17 2 0 -8 -5 -9 -19 -1
-14 7 -22 7 -26 0 -5 -8 -12 -7 -23 2 -9 7 -13 8 -9 2 4 -8 -10 -16 -40 -23
-61 -16 -127 -53 -177 -101 -23 -22 -50 -46 -61 -55 -11 -9 -13 -13 -5 -9 10
5 8 -1 -5 -15 -11 -13 -20 -28 -20 -34 -2 -39 -18 -77 -34 -77 -19 0 -23 33
-7 59 6 10 5 12 -2 7 -16 -10 -15 7 1 23 10 11 9 12 -1 6 -12 -6 -12 -3 -2 15
10 18 9 24 -1 31 -8 5 -9 9 -3 9 5 0 11 10 11 23 1 12 3 40 4 62 2 22 0 46 -4
53 -5 6 -4 12 1 12 12 0 10 32 -3 46 -5 6 -28 33 -50 60 -100 121 -160 191
-205 242 -14 16 -35 41 -48 56 -16 19 -27 25 -35 18 -45 -35 -239 -71 -266
-49 -11 9 -13 9 -8 0 6 -9 -8 -11 -51 -9 -61 4 -152 38 -152 58 0 6 -3 9 -6 5
-5 -5 -28 10 -58 39 -6 6 -29 33 -51 60 -22 26 -50 59 -62 72 -13 14 -23 29
-23 33 0 19 -17 7 -60 -43z"/>
</g>
</svg>
